# xmcd CD database file
#
# Track frame offsets:
#	150
#	30191
#	65896
#	89726
#	117880
#	131411
#	158613
#	173860
#	200933
#	237192
#
# Disc length: 3637 seconds
#
# Revision: 0
# Processed by: cddbd v1.5.1PL0 Copyright (c) Steve Scherf et al.
# Submitted via: CDex 1.51
#
DISCID=870e330a
DTITLE=Medwyn Goodall  - Momentum [Cd 2]
DYEAR=2004
DGENRE=New Age
TTITLE0=Hollow Earth
TTITLE1=Endless Search
TTITLE2=Unconditional Love
TTITLE3=Coral Island
TTITLE4=Spin Of The Reel
TTITLE5=Snow Kingdom Forever
TTITLE6=King Arthur
TTITLE7=Headwind
TTITLE8=Spirit Journey
TTITLE9=All For Love
EXTD=YEAR: 2004
EXTT0=
EXTT1=
EXTT2=
EXTT3=
EXTT4=
EXTT5=
EXTT6=
EXTT7=
EXTT8=
EXTT9=
PLAYORDER=
